# xmcd CD Database Entry
#
# Track frame offsets:
# 150
# 12227
# 23435
# 36780
# 50327
# 62847
# 76160
# 88685
# 100512
# 111395
# 122832
# 136637
# 148817
# 161370
# 174522
# 186400
# 198467
#
# Disc length: 2913 seconds
#
# Revision: 2
# Processed by: cddbd v1.5.2PL0 Copyright (c) Steve Scherf et al.
# Submitted via: RSJCDWriter_freedb_lib_OS/2 1.03
#
DISCID=da0b5f11
DTITLE=Kalevi Tauru - CD2
DYEAR=2000
DGENRE=country
TTITLE0=Alfredo
TTITLE1=Illan viimeinen tango
TTITLE2=Villihanhien laulu
TTITLE3=Kun sinut näin
TTITLE4=Metsämökin maarit
TTITLE5=Kultakutrini pieni
TTITLE6=Kotiportailla
TTITLE7=Kultaiset korvarenkaat
TTITLE8=Mummon kahvipannu
TTITLE9=Ihmeellinen arki
TTITLE10=Satamassa Caprin
TTITLE11=Kevättunnelmaa
TTITLE12=Siintävä tunturi
TTITLE13=Oispa unta se vain
TTITLE14=Suukkosten tanssi
TTITLE15=Rakkauteen tarvitaan kaksi
TTITLE16=Ko' elämä ol' oikiaa
EXTD=Suomen iskelmäkuningas 1952, 1953, 1954\nYEAR: 2000
EXTT0=YEAR: 1955
EXTT1=YEAR: 1955
EXTT2=YEAR: 1956
EXTT3=YEAR: 1956
EXTT4=YEAR: 1956
EXTT5=YEAR: 1956
EXTT6=YEAR: 1956
EXTT7=YEAR: 1956
EXTT8=YEAR: 1956
EXTT9=YEAR: 1956
EXTT10=YEAR: 1957
EXTT11=YEAR: 1957
EXTT12=YEAR: 1958
EXTT13=YEAR: 1958
EXTT14=YEAR: 1958
EXTT15=YEAR: 1958
EXTT16=YEAR: 1998
PLAYORDER=
